<svg width="838" height="769" viewBox="0 0 838 769" fill="none" xmlns="http://www.w3.org/2000/svg">
<path fill-rule="evenodd" clip-rule="evenodd" d="M279.529 567.297C266.824 554.455 266.824 533.585 279.529 520.744C296.935 503.1 376.811 422.136 394.421 404.288C419.763 378.571 460.909 378.571 486.252 404.288L601.211 520.744C613.882 533.62 613.984 554.455 601.313 567.297C588.608 580.172 568.239 580.172 555.568 567.297L501.307 511.879C491.054 501.524 474.364 508.857 474.364 523.538V692.684C474.364 710.874 458.253 725.632 440.302 725.632C422.351 725.632 406.24 710.874 406.24 692.684V523.605C406.24 508.924 389.55 501.591 379.297 511.946L325.479 567.297C312.773 580.172 292.2 580.172 279.529 567.297Z" fill="black"/>
<path d="M191.237 620.382C177.712 613.493 166.725 602.507 159.834 588.984C152 573.606 152 553.467 152 513.213V321.019C152 301.818 152 292.212 154.335 283.274C156.404 275.357 159.827 267.863 164.424 261.091C169.611 253.45 176.82 247.114 191.271 234.469L363.829 83.4811C390.618 60.0391 404.015 48.3174 419.102 43.8557C432.406 39.9216 446.587 39.9216 459.891 43.8557C474.988 48.3206 488.404 60.0535 515.235 83.5311L687.735 234.469C702.189 247.114 709.398 253.45 714.587 261.091C719.184 267.863 722.58 275.357 724.65 283.274C726.982 292.212 727 301.818 727 321.019V513.339C727 553.513 727 573.62 719.173 588.984C712.284 602.507 701.258 613.493 687.735 620.382" fill="none" stroke="black" stroke-width="66.6667" stroke-linecap="round" stroke-linejoin="round"/>
</svg>
