<svg width="838" height="769" viewBox="0 0 838 769" fill="none" xmlns="http://www.w3.org/2000/svg">
<path d="M329 226H509C550.421 226 584 259.579 584 301V477C584 518.421 550.421 552 509 552H329C287.579 552 254 518.421 254 477V301C254 259.579 287.579 226 329 226Z" stroke="black" fill="none" stroke-width="40"/>
<path d="M739 421C739 506.134 705.233 587.782 645.128 647.981C585.022 708.18 503.502 742 418.5 742C333.498 742 251.978 708.18 191.872 647.981C131.767 587.782 98 506.135 98 421" stroke="black" fill="none" stroke-width="40" stroke-linecap="round"/>
<path d="M163.5 340.5C163.5 340.5 132.935 344.466 108.158 347.682C102.773 348.381 97.9902 344.184 98.1631 338.756C100.756 257.339 134.182 179.799 191.872 122.019C251.978 61.8195 333.498 28 418.5 28C503.502 28 585.022 61.8195 645.128 122.019C702.879 179.86 736.315 257.503 738.845 339.015C739.011 344.351 734.379 348.519 729.069 347.967L676.5 342.5" stroke="black" fill="none" stroke-width="40" stroke-linecap="round"/>
</svg>
